<?xml version="1.0" encoding="utf-8"?><!-- modified from Noto Emoji https://codepoints.net/U+1F921 -->
<svg xmlns="http://www.w3.org/2000/svg" id="U1F921" viewBox="0 0 2340 2340"><path style="fill: white" transform="translate(-130, 1870) scale(1,-1)" d="M1300-350L1300-350Q1072-350 878.50-271.50Q685-193 542-51Q399 91 319.50 282.50Q240 474 240 700L240 700Q240 770 248 836.50Q256 903 271 966L271 966L387 936Q360 824 360 700L360 700Q360 498 430.50 326Q501 154 627.50 27.50Q754-99 926-169.50Q1098-240 1301-240L1301-240Q1503-240 1674.50-169.50Q1846-99 1972.50 27.50Q2099 154 2169.50 326Q2240 498 2240 700L2240 700Q2240 824 2213 936L2213 936L2329 966Q2344 903 2352 836.50Q2360 770 2360 700L2360 700Q2360 474 2280.50 282.50Q2201 91 2058-51Q1915-193 1721.50-271.50Q1528-350 1300-350ZM1300-82L1300-82Q1157-82 1034-35.50Q911 11 835.50 87Q760 163 760 251L760 251Q760 303 785 331Q810 359 862 359L862 359Q895 359 931 351Q967 343 1015 332.50Q1063 322 1132 314Q1201 306 1300 306L1300 306Q1399 306 1468 314Q1537 322 1585 332.50Q1633 343 1669 351Q1705 359 1738 359L1738 359Q1791 359 1815.50 331Q1840 303 1840 251L1840 251Q1840 163 1764.50 87Q1689 11 1566-35.50Q1443-82 1300-82ZM1300 33L1300 33Q1399 33 1488.50 61Q1578 89 1634.50 132.50Q1691 176 1691 224L1691 224Q1691 234 1686 239Q1681 244 1671 244L1671 244Q1648 244 1605.50 231Q1563 218 1490 204.50Q1417 191 1301 191L1301 191Q1184 191 1110.50 204.50Q1037 218 994.50 231Q952 244 929 244L929 244Q919 244 914 239Q909 234 909 224L909 224Q909 176 965.50 132.50Q1022 89 1112 61Q1202 33 1300 33ZM928 765L928 765Q871 765 830.50 814Q790 863 790 930L790 930Q790 998 830.50 1046.50Q871 1095 928 1095L928 1095Q985 1095 1025.50 1046.50Q1066 998 1066 930L1066 930Q1066 863 1025.50 814Q985 765 928 765ZM367 877L367 877Q302 877 248 909.50Q194 942 162 996Q130 1050 130 1116L130 1116Q130 1223 209 1293L209 1293Q200 1331 200 1366L200 1366Q200 1454 242.50 1526Q285 1598 357 1641Q429 1684 516 1684L516 1684Q588 1684 651 1654L651 1654Q679 1698 725 1724Q771 1750 825 1750L825 1750Q911 1750 971.50 1690Q1032 1630 1032 1544L1032 1544Q1032 1458 971.50 1397.50Q911 1337 825 1337L825 1337L836 1366Q836 1257 770 1172Q704 1087 600 1059L600 1059Q581 980 516.50 928.50Q452 877 367 877ZM1300 376L1300 376Q1231 376 1174.50 410Q1118 444 1084 500.50Q1050 557 1050 626L1050 626Q1050 695 1084 752Q1118 809 1174.50 842.50Q1231 876 1300 876L1300 876Q1369 876 1425.50 842.50Q1482 809 1516 752Q1550 695 1550 626L1550 626Q1550 557 1516 500.50Q1482 444 1425.50 410Q1369 376 1300 376ZM1672 765L1672 765Q1615 765 1574.50 814Q1534 863 1534 930L1534 930Q1534 998 1574.50 1046.50Q1615 1095 1672 1095L1672 1095Q1729 1095 1769.50 1046.50Q1810 998 1810 930L1810 930Q1810 863 1769.50 814Q1729 765 1672 765ZM971 1586L971 1586L906 1681Q997 1715 1095.50 1732.50Q1194 1750 1300 1750L1300 1750Q1406 1750 1504.50 1732.50Q1603 1715 1694 1681L1694 1681L1629 1586Q1553 1612 1470.50 1626Q1388 1640 1300 1640L1300 1640Q1212 1640 1130 1626Q1048 1612 971 1586ZM2233 877L2233 877Q2148 877 2083.50 928.50Q2019 980 2000 1059L2000 1059Q1897 1087 1830.50 1172Q1764 1257 1764 1366L1764 1366L1775 1337Q1689 1337 1628.50 1397.50Q1568 1458 1568 1544L1568 1544Q1568 1630 1629 1690Q1690 1750 1775 1750L1775 1750Q1829 1750 1875 1724Q1921 1698 1949 1654L1949 1654Q2012 1684 2084 1684L2084 1684Q2171 1684 2243 1641Q2315 1598 2357.50 1526Q2400 1454 2400 1366L2400 1366Q2400 1331 2391 1293L2391 1293Q2470 1223 2470 1116L2470 1116Q2470 1050 2438 996Q2406 942 2352.50 909.50Q2299 877 2233 877Z"/></svg>